<?xml version="1.0" encoding="utf-8"?>
<!-- Generator: Adobe Illustrator 16.0.0, SVG Export Plug-In . SVG Version: 6.00 Build 0)  -->
<!DOCTYPE svg PUBLIC "-//W3C//DTD SVG 1.1//EN" "http://www.w3.org/Graphics/SVG/1.1/DTD/svg11.dtd">
<svg version="1.1" id="Layer_1" xmlns="http://www.w3.org/2000/svg" xmlns:xlink="http://www.w3.org/1999/xlink" x="0px" y="0px"
	 width="420.75px" height="404.5px" viewBox="0 0 420.75 404.5" enable-background="new 0 0 420.75 404.5" xml:space="preserve">
<rect x="285.104" y="9.772" transform="matrix(-0.7071 -0.7071 0.7071 -0.7071 495.9548 257.2984)" fill="none" stroke="#FFFFFF" stroke-width="3" stroke-miterlimit="10" width="32.324" height="32.324"/>
<path fill="none" stroke="#FFFFFF" stroke-width="1.5" stroke-linecap="round" stroke-linejoin="round" stroke-miterlimit="10" d="
	M303.545,23.297l2.83,2.829l-2.68,2.679 M306.375,26.051h-8.934"/>
<rect x="344.457" y="9.775" transform="matrix(0.7071 -0.7071 0.7071 0.7071 87.2879 262.5984)" fill="none" stroke="#FFFFFF" stroke-width="3" stroke-miterlimit="10" width="32.323" height="32.324"/>
<path fill="none" stroke="#FFFFFF" stroke-width="1.5" stroke-linecap="round" stroke-linejoin="round" stroke-miterlimit="10" d="
	M358.188,28.805l-2.68-2.679l2.83-2.829 M364.441,26.051h-8.934"/>
<rect x="285.104" y="67.731" transform="matrix(-0.7071 -0.7071 0.7071 -0.7071 454.9654 356.2447)" fill="none" stroke="#141926" stroke-width="3" stroke-miterlimit="10" width="32.323" height="32.323"/>
<polygon fill="#FFFFFF" stroke="#000000" stroke-miterlimit="10" points="-326.455,-44.005 -327.68,-39.858 -323.531,-41.082 "/>
<rect x="46.75" y="-58.75" fill="none" stroke="#141926" stroke-width="3" stroke-miterlimit="10" width="46.75" height="46.75"/>
<rect y="-58.75" fill="none" stroke="#ADADAD" stroke-width="3" stroke-miterlimit="10" width="46.75" height="46.75"/>
<rect x="17.755" y="61.751" fill="#141926" width="21.662" height="6"/>
<rect x="7.088" y="61.085" fill="#141926" width="7.333" height="7.333"/>
<rect x="17.755" y="61.085" fill="#141926" width="21.662" height="7.333"/>
<rect x="17.755" y="72.418" fill="#141926" width="21.662" height="7.333"/>
<rect x="17.755" y="83.751" fill="#141926" width="21.662" height="7.333"/>
<rect x="7.088" y="72.418" fill="#141926" width="7.333" height="7.333"/>
<rect x="7.088" y="83.751" fill="#141926" width="7.333" height="7.333"/>
<rect x="54.043" y="61.085" fill="#141926" width="7.333" height="7.333"/>
<rect x="54.043" y="72.418" fill="#141926" width="7.333" height="7.333"/>
<rect x="54.043" y="83.752" fill="#141926" width="7.333" height="7.333"/>
<rect x="66.211" y="61.085" fill="#141926" width="7.334" height="7.333"/>
<rect x="66.211" y="72.418" fill="#141926" width="7.334" height="7.333"/>
<rect x="66.211" y="83.752" fill="#141926" width="7.334" height="7.333"/>
<rect x="78.379" y="61.085" fill="#141926" width="7.334" height="7.333"/>
<rect x="78.379" y="72.418" fill="#141926" width="7.334" height="7.333"/>
<rect x="78.379" y="83.752" fill="#141926" width="7.334" height="7.333"/>
<rect x="46.75" y="-112" fill="none" stroke="#ADADAD" stroke-width="3" stroke-miterlimit="10" width="46.75" height="46.75"/>
<rect y="-112" fill="none" stroke="#141926" stroke-width="3" stroke-miterlimit="10" width="46.75" height="46.75"/>
<rect x="140.25" y="-58.75" fill="none" stroke="#141926" stroke-width="3" stroke-miterlimit="10" width="46.75" height="46.75"/>
<rect x="93.5" y="-58.75" fill="none" stroke="#ADADAD" stroke-width="3" stroke-miterlimit="10" width="46.75" height="46.75"/>
<rect x="140.25" y="-112" fill="none" stroke="#ADADAD" stroke-width="3" stroke-miterlimit="10" width="46.75" height="46.75"/>
<rect x="233.75" y="-58.75" fill="none" stroke="#141926" stroke-width="3" stroke-miterlimit="10" width="46.75" height="46.75"/>
<rect x="233.75" y="0.108" fill="none" width="46.75" height="90.977"/>
<rect x="233.75" y="-112" fill="none" stroke="#ADADAD" stroke-width="3" stroke-miterlimit="10" width="46.75" height="46.75"/>
<rect x="93.5" y="-112" fill="none" stroke="#141926" stroke-width="3" stroke-miterlimit="10" width="46.75" height="46.75"/>
<rect x="187" y="-58.75" fill="none" stroke="#ADADAD" stroke-width="3" stroke-miterlimit="10" width="46.75" height="46.75"/>
<rect x="187" y="-112" fill="none" stroke="#141926" stroke-width="3" stroke-miterlimit="10" width="46.75" height="46.75"/>
<rect x="280.5" y="-58.75" fill="none" stroke="#ADADAD" stroke-width="3" stroke-miterlimit="10" width="46.75" height="46.75"/>
<rect x="280.5" y="-112" fill="none" stroke="#141926" stroke-width="3" stroke-miterlimit="10" width="46.75" height="46.75"/>
<rect x="327.25" y="-58.75" fill="none" stroke="#141926" stroke-width="3" stroke-miterlimit="10" width="46.75" height="46.75"/>
<rect x="327.25" y="-112" fill="none" stroke="#ADADAD" stroke-width="3" stroke-miterlimit="10" width="46.75" height="46.75"/>
<rect x="374" y="-58.75" fill="none" stroke="#ADADAD" stroke-width="3" stroke-miterlimit="10" width="46.75" height="46.75"/>
<rect x="374" y="-112" fill="none" stroke="#141926" stroke-width="3" stroke-miterlimit="10" width="46.75" height="46.75"/>
<rect x="17.755" y="8.501" fill="#FFFFFF" width="21.662" height="6"/>
<rect x="7.088" y="7.835" fill="#FFFFFF" width="7.333" height="7.333"/>
<rect x="17.755" y="7.835" fill="#FFFFFF" width="21.662" height="7.333"/>
<rect x="17.755" y="19.168" fill="#FFFFFF" width="21.662" height="7.333"/>
<rect x="17.755" y="30.501" fill="#FFFFFF" width="21.662" height="7.333"/>
<rect x="7.088" y="19.168" fill="#FFFFFF" width="7.333" height="7.333"/>
<rect x="7.088" y="30.501" fill="#FFFFFF" width="7.333" height="7.333"/>
<rect x="-88.957" y="-139.173" fill="none" stroke="#141926" stroke-miterlimit="10" width="17.341" height="7.333"/>
<rect x="-68.282" y="-127.84" fill="#393730" width="11.654" height="1.648"/>
<rect x="-68.282" y="-122.155" fill="#393730" width="11.654" height="1.648"/>
<rect x="-68.282" y="-124.998" fill="#393730" width="11.654" height="1.648"/>
<rect x="-68.282" y="-116.507" fill="#393730" width="11.654" height="1.648"/>
<rect x="-68.282" y="-110.822" fill="#393730" width="11.654" height="1.648"/>
<rect x="-68.282" y="-113.665" fill="#393730" width="11.654" height="1.648"/>
<rect x="-68.282" y="-139.173" fill="#393730" width="11.654" height="1.648"/>
<rect x="-68.282" y="-133.488" fill="#393730" width="11.654" height="1.648"/>
<rect x="-68.282" y="-136.331" fill="#393730" width="11.654" height="1.648"/>
<rect x="-88.957" y="-127.84" fill="none" stroke="#141926" stroke-miterlimit="10" width="17.341" height="7.333"/>
<rect x="-88.957" y="-116.507" fill="none" stroke="#141926" stroke-miterlimit="10" width="17.341" height="7.333"/>
<rect x="54.043" y="7.835" fill="#FFFFFF" width="7.333" height="7.333"/>
<rect x="54.043" y="19.168" fill="#FFFFFF" width="7.333" height="7.333"/>
<rect x="54.043" y="30.502" fill="#FFFFFF" width="7.333" height="7.333"/>
<rect x="66.211" y="7.835" fill="#FFFFFF" width="7.334" height="7.333"/>
<rect x="66.211" y="19.168" fill="#FFFFFF" width="7.334" height="7.333"/>
<rect x="66.211" y="30.502" fill="#FFFFFF" width="7.334" height="7.333"/>
<rect x="78.379" y="7.835" fill="#FFFFFF" width="7.334" height="7.333"/>
<rect x="78.379" y="19.168" fill="#FFFFFF" width="7.334" height="7.333"/>
<rect x="78.379" y="30.502" fill="#FFFFFF" width="7.334" height="7.333"/>
<rect x="-135.112" y="-139.173" fill="#393730" width="17.342" height="12.338"/>
<rect x="-114.438" y="-121.834" fill="#393730" width="11.654" height="1.648"/>
<rect x="-114.438" y="-116.15" fill="#393730" width="11.654" height="1.648"/>
<rect x="-114.438" y="-118.992" fill="#393730" width="11.654" height="1.648"/>
<rect x="-114.438" y="-139.173" fill="#393730" width="11.654" height="1.648"/>
<rect x="-114.438" y="-133.488" fill="#393730" width="11.654" height="1.648"/>
<rect x="-114.438" y="-136.331" fill="#393730" width="11.654" height="1.648"/>
<rect x="-135.112" y="-121.834" fill="#393730" width="17.342" height="12.338"/>
<rect x="-135.124" y="-85.221" fill="#393730" width="32.354" height="12.338"/>
<rect x="-135.124" y="-67.882" fill="#393730" width="32.354" height="12.338"/>
<ellipse fill="#FFFFFF" stroke="#000000" stroke-miterlimit="10" cx="-317.258" cy="-48.376" rx="11.387" ry="8.519"/>
<polygon fill="#FFFFFF" stroke="#000000" stroke-miterlimit="10" points="-295.289,-44.005 -296.514,-39.858 -292.365,-41.082 "/>
<circle fill="#FFFFFF" stroke="#000000" stroke-miterlimit="10" cx="-288.542" cy="-48.913" r="9.125"/>
<path fill="#FFFFFF" stroke="#141926" stroke-width="3" stroke-linecap="round" stroke-linejoin="round" stroke-miterlimit="10" d="
	M109.587,61.829c-5.558,0-10.062,4.504-10.062,10.061c0,2.444,0.871,4.682,2.323,6.425l-1.051,3.558l3.946-1.164
	c1.438,0.791,3.086,1.241,4.844,1.241c5.555,0,10.058-4.505,10.058-10.06C119.645,66.333,115.142,61.829,109.587,61.829z"/>
<path fill="#FFFFFF" stroke="#141926" stroke-width="3" stroke-linecap="round" stroke-linejoin="round" stroke-miterlimit="10" d="
	M120.619,63.124c7.517,0,13.607,6.094,13.607,13.607c0,3.306-1.179,6.334-3.14,8.693l1.42,4.811l-5.341-1.575
	c-1.942,1.068-4.171,1.679-6.547,1.679c-7.517,0-13.608-6.091-13.608-13.607C107.011,69.218,113.103,63.124,120.619,63.124z"/>
<circle fill="#FFFFFF" stroke="#000000" stroke-miterlimit="10" cx="-211.731" cy="-130.048" r="9.125"/>
<polygon fill="#FFFFFF" stroke="#000000" stroke-width="1.124" stroke-miterlimit="10" points="-268.661,-82.78 -269.697,-79.269 
	-266.185,-80.304 "/>
<g>
	<path fill="#FFFFFF" d="M-257.188-80.759c0,0.466-0.381,0.847-0.847,0.847h-10.1c-0.466,0-0.847-0.381-0.847-0.847V-90.86
		c0-0.466,0.381-0.847,0.847-0.847h10.1c0.466,0,0.847,0.381,0.847,0.847V-80.759z"/>
	<path fill="none" stroke="#000000" stroke-width="1.124" stroke-miterlimit="10" d="M-257.188-80.759
		c0,0.466-0.381,0.847-0.847,0.847h-10.1c-0.466,0-0.847-0.381-0.847-0.847V-90.86c0-0.466,0.381-0.847,0.847-0.847h10.1
		c0.466,0,0.847,0.381,0.847,0.847V-80.759z"/>
</g>
<polygon fill="#FFFFFF" stroke="#000000" stroke-width="1.1466" stroke-miterlimit="10" points="-270.37,-22.944 -271.774,-18.189 
	-267.018,-19.591 "/>
<g>
	<path fill="#FFFFFF" d="M-254.835-20.208c0,0.63-0.516,1.146-1.146,1.146h-13.678c-0.631,0-1.146-0.516-1.146-1.146v-13.678
		c0-0.63,0.516-1.146,1.146-1.146h13.678c0.631,0,1.146,0.516,1.146,1.146V-20.208z"/>
	<path fill="none" stroke="#000000" stroke-width="1.1466" stroke-miterlimit="10" d="M-254.835-20.208
		c0,0.63-0.516,1.146-1.146,1.146h-13.678c-0.631,0-1.146-0.516-1.146-1.146v-13.678c0-0.63,0.516-1.146,1.146-1.146h13.678
		c0.631,0,1.146,0.516,1.146,1.146V-20.208z"/>
</g>
<polygon fill="#FFFFFF" stroke="#000000" stroke-width="0.8828" stroke-miterlimit="10" points="-271.747,-130.048 
	-272.828,-126.387 -269.166,-127.467 "/>
<g>
	<path fill="#FFFFFF" d="M-256.783-127.941c0,0.485-0.397,0.883-0.883,0.883H-271.2c-0.485,0-0.883-0.397-0.883-0.883v-10.53
		c0-0.485,0.397-0.883,0.883-0.883h13.534c0.485,0,0.883,0.397,0.883,0.883V-127.941L-256.783-127.941z"/>
	<path fill="none" stroke="#000000" stroke-width="0.8828" stroke-miterlimit="10" d="M-256.783-127.941
		c0,0.485-0.397,0.883-0.883,0.883H-271.2c-0.485,0-0.883-0.397-0.883-0.883v-10.53c0-0.485,0.397-0.883,0.883-0.883h13.534
		c0.485,0,0.883,0.397,0.883,0.883V-127.941L-256.783-127.941z"/>
</g>
<polygon fill="#FFFFFF" stroke="#000000" stroke-width="1.1466" stroke-miterlimit="10" points="-246.228,-123.197 
	-244.823,-118.442 -249.58,-119.844 "/>
<g>
	<path fill="#FFFFFF" d="M-264.766-120.46c0,0.63,0.516,1.146,1.146,1.146h16.681c0.631,0,1.146-0.516,1.146-1.146v-13.678
		c0-0.63-0.516-1.146-1.146-1.146h-16.681c-0.631,0-1.146,0.516-1.146,1.146V-120.46z"/>
	<path fill="none" stroke="#000000" stroke-width="1.1466" stroke-miterlimit="10" d="M-264.766-120.46
		c0,0.63,0.516,1.146,1.146,1.146h16.681c0.631,0,1.146-0.516,1.146-1.146v-13.678c0-0.63-0.516-1.146-1.146-1.146h-16.681
		c-0.631,0-1.146,0.516-1.146,1.146V-120.46z"/>
</g>
<polygon fill="#FFFFFF" stroke="#000000" stroke-width="1.1466" stroke-miterlimit="10" points="-245.259,-45.454 -247.3,-38.542 
	-240.386,-40.581 "/>
<g>
	<path fill="#FFFFFF" d="M-218.956-41.958c0,0.63-0.516,1.146-1.146,1.146h-23.686c-0.631,0-1.146-0.516-1.146-1.146v-13.678
		c0-0.63,0.516-1.146,1.146-1.146h23.686c0.631,0,1.146,0.516,1.146,1.146V-41.958z"/>
	<path fill="none" stroke="#000000" stroke-width="1.1466" stroke-miterlimit="10" d="M-218.956-41.958
		c0,0.63-0.516,1.146-1.146,1.146h-23.686c-0.631,0-1.146-0.516-1.146-1.146v-13.678c0-0.63,0.516-1.146,1.146-1.146h23.686
		c0.631,0,1.146,0.516,1.146,1.146V-41.958z"/>
</g>
<polygon fill="#FFFFFF" points="-268.2,-82.621 -269.166,-79.8 -266.345,-80.764 "/>
<polygon fill="#FFFFFF" stroke="#000000" stroke-width="0.9994" stroke-miterlimit="10" points="-250.618,-78.32 -249.394,-74.175 
	-253.54,-75.398 "/>
<g>
	<path fill="#FFFFFF" d="M-264.159-75.935c0,0.55,0.45,1,0.999,1h11.922c0.549,0,0.999-0.45,0.999-1v-11.921c0-0.55-0.45-1-0.999-1
		h-11.922c-0.549,0-0.999,0.45-0.999,1V-75.935z"/>
	<path fill="none" stroke="#000000" stroke-width="0.9994" stroke-miterlimit="10" d="M-264.159-75.935c0,0.55,0.45,1,0.999,1
		h11.922c0.549,0,0.999-0.45,0.999-1v-11.921c0-0.55-0.45-1-0.999-1h-11.922c-0.549,0-0.999,0.45-0.999,1V-75.935z"/>
</g>
<polygon fill="#FFFFFF" points="-251.162,-78.131 -250.022,-74.803 -253.352,-75.94 "/>
<polygon fill="#FFFFFF" stroke="#000000" stroke-width="0.9746" stroke-miterlimit="10" points="-218.303,-83.594 -219.201,-80.55 
	-216.156,-81.447 "/>
<g>
	<path fill="#FFFFFF" d="M-204.883-81.842c0,0.404-0.33,0.734-0.734,0.734h-12.229c-0.404,0-0.734-0.331-0.734-0.734V-90.6
		c0-0.404,0.33-0.734,0.734-0.734h12.229c0.404,0,0.734,0.331,0.734,0.734V-81.842z"/>
	<path fill="none" stroke="#000000" stroke-width="0.9746" stroke-miterlimit="10" d="M-204.883-81.842
		c0,0.404-0.33,0.734-0.734,0.734h-12.229c-0.404,0-0.734-0.331-0.734-0.734V-90.6c0-0.404,0.33-0.734,0.734-0.734h12.229
		c0.404,0,0.734,0.331,0.734,0.734V-81.842z"/>
</g>
<polygon fill="#FFFFFF" points="-217.903,-83.456 -218.74,-81.01 -216.295,-81.846 "/>
<polygon fill="#FFFFFF" stroke="#000000" stroke-width="0.9994" stroke-miterlimit="10" points="-195.872,-78.32 -194.647,-74.175 
	-198.794,-75.398 "/>
<g>
	<path fill="#FFFFFF" d="M-213.417-75.935c0,0.55,0.45,1,0.999,1h15.926c0.549,0,0.999-0.45,0.999-1v-11.921c0-0.55-0.45-1-0.999-1
		h-15.926c-0.549,0-0.999,0.45-0.999,1V-75.935z"/>
	<path fill="none" stroke="#000000" stroke-width="0.9994" stroke-miterlimit="10" d="M-213.417-75.935c0,0.55,0.45,1,0.999,1
		h15.926c0.549,0,0.999-0.45,0.999-1v-11.921c0-0.55-0.45-1-0.999-1h-15.926c-0.549,0-0.999,0.45-0.999,1V-75.935z"/>
</g>
<polygon fill="#FFFFFF" points="-196.416,-78.131 -195.276,-74.803 -198.605,-75.94 "/>
<text transform="matrix(1 0 0 1 -213.791 -125.3857)" font-family="'Georgia-Italic'" font-size="13.3448">i</text>
<circle fill="#FFFFFF" stroke="#141926" stroke-width="3" stroke-miterlimit="10" cx="163.625" cy="123.758" r="13.608"/>
<path fill="none" stroke="#FFFFFF" stroke-width="3" stroke-linecap="round" stroke-linejoin="round" stroke-miterlimit="10" d="
	M107.01,23.484c0.001-5.827,3.67-10.785,8.818-12.725c-1.716-1.361-3.881-2.18-6.241-2.18c-5.558,0-10.062,4.505-10.062,10.062
	c0,2.444,0.871,4.683,2.323,6.425l-1.051,3.557l3.946-1.164c0.994,0.547,2.094,0.917,3.256,1.103
	C107.366,26.992,107.01,25.28,107.01,23.484z"/>
<line fill="none" stroke="#141926" stroke-width="2.359" stroke-linecap="round" stroke-miterlimit="10" x1="159.523" y1="127.859" x2="167.726" y2="119.656"/>
<line fill="none" stroke="#141926" stroke-width="2.359" stroke-linecap="round" stroke-miterlimit="10" x1="159.524" y1="119.657" x2="167.726" y2="127.859"/>
<circle fill="#FFFFFF" stroke="#141926" stroke-width="3" stroke-miterlimit="10" cx="-112.833" cy="75.763" r="13.608"/>
<circle fill="#FFFFFF" stroke="#141926" stroke-width="3" stroke-miterlimit="10" cx="-112.833" cy="123.758" r="13.608"/>
<g>
	<path fill="#393730" d="M-110.854,82.302L-111,82.923c-0.597,0.24-1.071,0.408-1.428,0.502c-0.356,0.094-0.661,0.141-0.914,0.141
		c-0.518,0-0.906-0.135-1.166-0.404c-0.259-0.27-0.389-0.602-0.389-0.996c0-0.15,0.014-0.305,0.039-0.469
		c0.026-0.162,0.068-0.365,0.126-0.611l1.027-4.135c0.052-0.227,0.102-0.471,0.15-0.73c0.048-0.258,0.072-0.479,0.072-0.66
		c0-0.363-0.06-0.605-0.18-0.725c-0.119-0.121-0.363-0.182-0.731-0.182c-0.143,0-0.332,0.023-0.567,0.068
		c-0.236,0.047-0.416,0.084-0.539,0.117l0.146-0.621c0.505-0.227,0.958-0.396,1.359-0.506s0.719-0.166,0.952-0.166
		c0.53,0,0.916,0.127,1.153,0.381c0.24,0.252,0.359,0.592,0.359,1.021c0,0.115-0.013,0.275-0.037,0.477
		c-0.027,0.201-0.064,0.4-0.117,0.602l-1.031,4.135c-0.064,0.254-0.121,0.502-0.169,0.744c-0.049,0.244-0.072,0.443-0.072,0.598
		c0,0.371,0.082,0.623,0.247,0.76c0.164,0.137,0.432,0.205,0.799,0.205c0.122,0,0.298-0.018,0.525-0.049
		C-111.153,82.386-110.979,82.347-110.854,82.302z M-110.166,69.874c0,0.369-0.12,0.691-0.358,0.967
		c-0.24,0.275-0.539,0.412-0.895,0.412c-0.331,0-0.616-0.131-0.855-0.393c-0.24-0.264-0.357-0.562-0.357-0.9
		c0-0.355,0.119-0.666,0.357-0.932c0.239-0.266,0.524-0.398,0.855-0.398c0.369,0,0.67,0.125,0.902,0.373
		C-110.282,69.253-110.166,69.544-110.166,69.874z"/>
</g>
<circle fill="#FFFFFF" stroke="#ADADAD" stroke-width="3" stroke-miterlimit="10" cx="-112.833" cy="22.512" r="13.608"/>
<g>
	<path fill="#ADADAD" d="M-110.854,29.051L-111,29.674c-0.597,0.24-1.071,0.406-1.428,0.5c-0.356,0.094-0.661,0.141-0.914,0.141
		c-0.518,0-0.906-0.135-1.166-0.402c-0.259-0.27-0.389-0.602-0.389-0.998c0-0.148,0.014-0.305,0.039-0.467
		c0.026-0.162,0.068-0.367,0.126-0.613l1.027-4.135c0.052-0.227,0.102-0.469,0.15-0.729c0.048-0.26,0.072-0.48,0.072-0.662
		c0-0.363-0.06-0.604-0.18-0.725c-0.119-0.119-0.363-0.18-0.731-0.18c-0.143,0-0.332,0.023-0.567,0.068
		c-0.236,0.045-0.416,0.084-0.539,0.117l0.146-0.623c0.505-0.227,0.958-0.395,1.359-0.506c0.401-0.109,0.719-0.164,0.952-0.164
		c0.53,0,0.916,0.127,1.153,0.379c0.24,0.254,0.359,0.594,0.359,1.021c0,0.117-0.013,0.275-0.037,0.477
		c-0.027,0.201-0.064,0.402-0.117,0.604l-1.031,4.135c-0.064,0.252-0.121,0.5-0.169,0.744c-0.049,0.242-0.072,0.441-0.072,0.598
		c0,0.369,0.082,0.623,0.247,0.758c0.164,0.137,0.432,0.205,0.799,0.205c0.122,0,0.298-0.016,0.525-0.049
		C-111.153,29.137-110.979,29.098-110.854,29.051z M-110.166,16.624c0,0.369-0.12,0.691-0.358,0.967
		c-0.24,0.275-0.539,0.414-0.895,0.414c-0.331,0-0.616-0.131-0.855-0.395c-0.24-0.262-0.357-0.562-0.357-0.898
		c0-0.355,0.119-0.668,0.357-0.934c0.239-0.266,0.524-0.398,0.855-0.398c0.369,0,0.67,0.125,0.902,0.375
		C-110.283,16.005-110.166,16.293-110.166,16.624z"/>
</g>
<line fill="none" stroke="#141926" stroke-width="2.359" stroke-linecap="round" stroke-miterlimit="10" x1="-116.935" y1="127.859" x2="-108.732" y2="119.656"/>
<line fill="none" stroke="#141926" stroke-width="2.359" stroke-linecap="round" stroke-miterlimit="10" x1="-116.934" y1="119.657" x2="-108.732" y2="127.859"/>
<circle fill="#FFFFFF" stroke="#141926" stroke-width="3" stroke-miterlimit="10" cx="163.625" cy="75.763" r="13.608"/>
<g>
	<path fill="#141926" d="M165.604,82.302l-0.146,0.621c-0.597,0.24-1.071,0.408-1.428,0.502c-0.356,0.094-0.661,0.141-0.914,0.141
		c-0.518,0-0.906-0.135-1.166-0.404c-0.259-0.27-0.389-0.602-0.389-0.996c0-0.15,0.014-0.305,0.039-0.469
		c0.026-0.162,0.068-0.365,0.126-0.611l1.027-4.135c0.052-0.227,0.102-0.471,0.15-0.73c0.048-0.258,0.072-0.479,0.072-0.66
		c0-0.363-0.06-0.605-0.18-0.725c-0.119-0.121-0.363-0.182-0.731-0.182c-0.143,0-0.332,0.023-0.567,0.068
		c-0.236,0.047-0.416,0.084-0.539,0.117l0.146-0.621c0.505-0.227,0.958-0.396,1.359-0.506c0.401-0.11,0.719-0.166,0.952-0.166
		c0.53,0,0.916,0.127,1.153,0.381c0.24,0.252,0.359,0.592,0.359,1.021c0,0.115-0.013,0.275-0.037,0.477
		c-0.027,0.201-0.064,0.4-0.117,0.602l-1.031,4.135c-0.064,0.254-0.121,0.502-0.169,0.744c-0.049,0.244-0.072,0.443-0.072,0.598
		c0,0.371,0.082,0.623,0.247,0.76c0.164,0.137,0.432,0.205,0.799,0.205c0.122,0,0.298-0.018,0.525-0.049
		C165.305,82.386,165.479,82.347,165.604,82.302z M166.292,69.874c0,0.369-0.12,0.691-0.358,0.967
		c-0.24,0.275-0.539,0.412-0.895,0.412c-0.331,0-0.616-0.131-0.855-0.393c-0.24-0.264-0.357-0.562-0.357-0.9
		c0-0.355,0.119-0.666,0.357-0.932c0.239-0.266,0.524-0.398,0.855-0.398c0.369,0,0.67,0.125,0.902,0.373
		C166.175,69.253,166.292,69.544,166.292,69.874z"/>
</g>
<circle fill="none" stroke="#FFFFFF" stroke-width="3" stroke-linecap="round" stroke-linejoin="round" stroke-miterlimit="10" cx="163.625" cy="22.512" r="13.608"/>
<g>
	<path fill="#FFFFFF" d="M165.604,29.051l-0.146,0.623c-0.597,0.24-1.071,0.406-1.428,0.5c-0.356,0.094-0.661,0.141-0.914,0.141
		c-0.518,0-0.906-0.135-1.166-0.402c-0.259-0.27-0.389-0.602-0.389-0.998c0-0.148,0.014-0.305,0.039-0.467
		c0.026-0.162,0.068-0.367,0.126-0.613l1.027-4.135c0.052-0.227,0.102-0.469,0.15-0.729c0.048-0.26,0.072-0.48,0.072-0.662
		c0-0.363-0.06-0.604-0.18-0.725c-0.119-0.119-0.363-0.18-0.731-0.18c-0.143,0-0.332,0.023-0.567,0.068
		c-0.236,0.045-0.416,0.084-0.539,0.117l0.146-0.623c0.505-0.227,0.958-0.395,1.359-0.506c0.401-0.109,0.719-0.164,0.952-0.164
		c0.53,0,0.916,0.127,1.153,0.379c0.24,0.254,0.359,0.594,0.359,1.021c0,0.117-0.013,0.275-0.037,0.477
		c-0.027,0.201-0.064,0.402-0.117,0.604l-1.031,4.135c-0.064,0.252-0.121,0.5-0.169,0.744c-0.049,0.242-0.072,0.441-0.072,0.598
		c0,0.369,0.082,0.623,0.247,0.758c0.164,0.137,0.432,0.205,0.799,0.205c0.122,0,0.298-0.016,0.525-0.049
		C165.305,29.137,165.479,29.098,165.604,29.051z M166.292,16.624c0,0.369-0.12,0.691-0.358,0.967
		c-0.24,0.275-0.539,0.414-0.895,0.414c-0.331,0-0.616-0.131-0.855-0.395c-0.24-0.262-0.357-0.562-0.357-0.898
		c0-0.355,0.119-0.668,0.357-0.934c0.239-0.266,0.524-0.398,0.855-0.398c0.369,0,0.67,0.125,0.902,0.375
		C166.174,16.005,166.292,16.293,166.292,16.624z"/>
</g>
<path fill="none" stroke="#141926" stroke-width="1.5" stroke-linecap="round" stroke-linejoin="round" stroke-miterlimit="10" d="
	M303.545,81.258l2.83,2.829l-2.68,2.679 M306.375,84.012h-8.934"/>
<rect x="344.456" y="67.737" transform="matrix(0.7071 -0.7071 0.7071 0.7071 46.2971 279.569)" fill="none" stroke="#141926" stroke-width="3" stroke-miterlimit="10" width="32.324" height="32.324"/>
<path fill="none" stroke="#141926" stroke-width="1.5" stroke-linecap="round" stroke-linejoin="round" stroke-miterlimit="10" d="
	M358.188,86.766l-2.68-2.679l2.83-2.829 M364.441,84.012h-8.934"/>
<rect x="514.118" y="25.93" fill="none" width="46.75" height="46.75"/>
<path fill="none" stroke="#ADADAD" stroke-width="2.359" stroke-linecap="round" stroke-linejoin="round" stroke-miterlimit="10" d="
	M446.5,17.498l4.332,4.331l-4.104,4.101 M450.832,21.829h-13.678"/>
<path fill="none" stroke="#141926" stroke-width="2.359" stroke-linecap="round" stroke-linejoin="round" stroke-miterlimit="10" d="
	M446.5,71.79l4.332,4.331l-4.104,4.101 M450.832,76.006h-13.678"/>
<path fill="none" stroke="#ADADAD" stroke-width="2.359" stroke-linecap="round" stroke-linejoin="round" stroke-miterlimit="10" d="
	M488.236,25.93l-4.332-4.331l4.103-4.101 M483.904,21.599h13.678"/>
<path fill="none" stroke="#141926" stroke-width="2.359" stroke-linecap="round" stroke-linejoin="round" stroke-miterlimit="10" d="
	M488.236,80.222l-4.332-4.331l4.103-4.101 M483.904,76.006h13.678"/>
<path fill="none" stroke="#FFFFFF" stroke-width="3" stroke-linecap="round" stroke-linejoin="round" stroke-miterlimit="10" d="
	M120.619,9.875c7.517,0,13.607,6.094,13.607,13.608c0,3.305-1.179,6.334-3.14,8.691l1.42,4.812l-5.341-1.575
	c-1.942,1.068-4.171,1.68-6.547,1.68c-7.517,0-13.608-6.092-13.608-13.607C107.011,15.968,113.103,9.875,120.619,9.875z"/>
</svg>
