<?xml version="1.0" encoding="utf-8"?>
<!-- Generator: Adobe Illustrator 16.0.0, SVG Export Plug-In . SVG Version: 6.00 Build 0)  -->
<!DOCTYPE svg PUBLIC "-//W3C//DTD SVG 1.1//EN" "http://www.w3.org/Graphics/SVG/1.1/DTD/svg11.dtd">
<svg version="1.1" id="Layer_1" xmlns="http://www.w3.org/2000/svg" xmlns:xlink="http://www.w3.org/1999/xlink" x="0px" y="0px"
	 width="420.75px" height="404.5px" viewBox="0 0 420.75 404.5" enable-background="new 0 0 420.75 404.5" xml:space="preserve">
<circle fill="none" stroke="#141926" stroke-width="2.4936" stroke-miterlimit="10" cx="163.625" cy="165.385" r="11.311"/>
<circle fill="none" stroke="#141926" stroke-width="2.4936" stroke-miterlimit="10" cx="163.625" cy="201.009" r="11.311"/>
<g>
	<path fill="#141926" d="M165.27,170.82l-0.122,0.516c-0.497,0.2-0.89,0.339-1.187,0.417c-0.296,0.078-0.549,0.117-0.759,0.117
		c-0.431,0-0.753-0.112-0.969-0.335c-0.216-0.225-0.324-0.5-0.324-0.828c0-0.125,0.012-0.253,0.033-0.39
		c0.021-0.135,0.056-0.304,0.104-0.508l0.854-3.437c0.043-0.189,0.085-0.392,0.125-0.607c0.041-0.215,0.06-0.398,0.06-0.549
		c0-0.301-0.05-0.503-0.149-0.603c-0.099-0.101-0.302-0.151-0.608-0.151c-0.119,0-0.276,0.019-0.471,0.057
		c-0.196,0.039-0.346,0.07-0.448,0.097l0.121-0.516c0.42-0.188,0.796-0.329,1.129-0.421c0.333-0.091,0.598-0.138,0.792-0.138
		c0.44,0,0.762,0.105,0.958,0.316c0.2,0.209,0.298,0.492,0.298,0.849c0,0.095-0.011,0.229-0.031,0.396
		c-0.022,0.167-0.053,0.333-0.097,0.5l-0.857,3.438c-0.053,0.211-0.101,0.417-0.14,0.618c-0.041,0.203-0.061,0.368-0.061,0.497
		c0,0.309,0.068,0.518,0.206,0.632c0.136,0.114,0.359,0.17,0.664,0.17c0.102,0,0.248-0.015,0.436-0.041
		C165.021,170.89,165.166,170.858,165.27,170.82z M165.842,160.49c0,0.307-0.1,0.574-0.298,0.804
		c-0.2,0.229-0.448,0.343-0.744,0.343c-0.275,0-0.512-0.109-0.711-0.327c-0.2-0.219-0.296-0.467-0.296-0.748
		c0-0.295,0.099-0.553,0.296-0.774c0.199-0.221,0.436-0.331,0.711-0.331c0.307,0,0.557,0.104,0.75,0.31
		C165.744,159.974,165.842,160.216,165.842,160.49z"/>
</g>
<rect x="285.106" y="9.773" transform="matrix(0.7071 0.7071 -0.7071 0.7071 106.5758 -205.43)" fill="none" stroke="#FFFFFF" stroke-width="3" stroke-miterlimit="10" width="32.324" height="32.324"/>
<path fill="none" stroke="#FFFFFF" stroke-width="1.5" stroke-linecap="round" stroke-linejoin="round" stroke-miterlimit="10" d="
	M303.545,23.297l2.83,2.829l-2.68,2.679 M306.375,26.051h-8.934"/>
<rect x="344.46" y="9.783" transform="matrix(-0.7071 0.7071 -0.7071 -0.7071 633.9621 -210.7095)" fill="none" stroke="#FFFFFF" stroke-width="3" stroke-miterlimit="10" width="32.323" height="32.323"/>
<path fill="none" stroke="#FFFFFF" stroke-width="1.5" stroke-linecap="round" stroke-linejoin="round" stroke-miterlimit="10" d="
	M358.188,28.805l-2.68-2.679l2.83-2.829 M364.441,26.051h-8.935"/>
<rect x="285.099" y="67.738" transform="matrix(0.7071 0.7071 -0.7071 0.7071 147.5631 -188.45)" fill="none" stroke="#141926" stroke-width="3" stroke-miterlimit="10" width="32.323" height="32.323"/>
<rect x="46.75" y="-58.75" fill="none" stroke="#141926" stroke-width="3" stroke-miterlimit="10" width="46.75" height="46.75"/>
<rect y="-58.75" fill="none" stroke="#ADADAD" stroke-width="3" stroke-miterlimit="10" width="46.75" height="46.75"/>
<rect x="17.755" y="61.751" fill="#141926" width="21.662" height="6"/>
<rect x="7.088" y="61.085" fill="#141926" width="7.333" height="7.333"/>
<rect x="17.755" y="61.085" fill="#141926" width="21.662" height="7.333"/>
<rect x="17.755" y="72.418" fill="#141926" width="21.662" height="7.333"/>
<rect x="17.755" y="83.751" fill="#141926" width="21.662" height="7.333"/>
<rect x="7.088" y="72.418" fill="#141926" width="7.333" height="7.333"/>
<rect x="7.088" y="83.751" fill="#141926" width="7.333" height="7.333"/>
<rect x="54.043" y="61.085" fill="#141926" width="7.333" height="7.333"/>
<rect x="54.043" y="72.418" fill="#141926" width="7.333" height="7.333"/>
<rect x="54.043" y="83.752" fill="#141926" width="7.333" height="7.333"/>
<rect x="66.211" y="61.085" fill="#141926" width="7.334" height="7.333"/>
<rect x="66.211" y="72.418" fill="#141926" width="7.334" height="7.333"/>
<rect x="66.211" y="83.752" fill="#141926" width="7.334" height="7.333"/>
<rect x="78.379" y="61.085" fill="#141926" width="7.334" height="7.333"/>
<rect x="78.379" y="72.418" fill="#141926" width="7.334" height="7.333"/>
<rect x="78.379" y="83.752" fill="#141926" width="7.334" height="7.333"/>
<rect x="46.75" y="-112" fill="none" stroke="#ADADAD" stroke-width="3" stroke-miterlimit="10" width="46.75" height="46.75"/>
<rect y="-112" fill="none" stroke="#141926" stroke-width="3" stroke-miterlimit="10" width="46.75" height="46.75"/>
<rect x="140.25" y="-58.75" fill="none" stroke="#141926" stroke-width="3" stroke-miterlimit="10" width="46.75" height="46.75"/>
<rect x="93.5" y="-58.75" fill="none" stroke="#ADADAD" stroke-width="3" stroke-miterlimit="10" width="46.75" height="46.75"/>
<rect x="140.25" y="-112" fill="none" stroke="#ADADAD" stroke-width="3" stroke-miterlimit="10" width="46.75" height="46.75"/>
<rect x="233.75" y="-58.75" fill="none" stroke="#141926" stroke-width="3" stroke-miterlimit="10" width="46.75" height="46.75"/>
<rect x="233.75" y="0.108" fill="none" width="46.75" height="90.977"/>
<rect x="233.75" y="-112" fill="none" stroke="#ADADAD" stroke-width="3" stroke-miterlimit="10" width="46.75" height="46.75"/>
<rect x="93.5" y="-112" fill="none" stroke="#141926" stroke-width="3" stroke-miterlimit="10" width="46.75" height="46.75"/>
<rect x="187" y="-58.75" fill="none" stroke="#ADADAD" stroke-width="3" stroke-miterlimit="10" width="46.75" height="46.75"/>
<rect x="187" y="-112" fill="none" stroke="#141926" stroke-width="3" stroke-miterlimit="10" width="46.75" height="46.75"/>
<rect x="280.5" y="-58.75" fill="none" stroke="#ADADAD" stroke-width="3" stroke-miterlimit="10" width="46.75" height="46.75"/>
<rect x="280.5" y="-112" fill="none" stroke="#141926" stroke-width="3" stroke-miterlimit="10" width="46.75" height="46.75"/>
<rect x="327.25" y="-58.75" fill="none" stroke="#141926" stroke-width="3" stroke-miterlimit="10" width="46.75" height="46.75"/>
<rect x="327.25" y="-112" fill="none" stroke="#ADADAD" stroke-width="3" stroke-miterlimit="10" width="46.75" height="46.75"/>
<rect x="374" y="-58.75" fill="none" stroke="#ADADAD" stroke-width="3" stroke-miterlimit="10" width="46.75" height="46.75"/>
<rect x="374" y="-112" fill="none" stroke="#141926" stroke-width="3" stroke-miterlimit="10" width="46.75" height="46.75"/>
<rect x="17.755" y="8.501" fill="#FFFFFF" width="21.662" height="6"/>
<rect x="7.088" y="7.835" fill="#FFFFFF" width="7.333" height="7.333"/>
<rect x="17.755" y="7.835" fill="#FFFFFF" width="21.662" height="7.333"/>
<rect x="17.755" y="19.168" fill="#FFFFFF" width="21.662" height="7.333"/>
<rect x="17.755" y="30.501" fill="#FFFFFF" width="21.662" height="7.333"/>
<rect x="7.088" y="19.168" fill="#FFFFFF" width="7.333" height="7.333"/>
<rect x="7.088" y="30.501" fill="#FFFFFF" width="7.333" height="7.333"/>
<rect x="54.043" y="7.835" fill="#FFFFFF" width="7.333" height="7.333"/>
<rect x="54.043" y="19.168" fill="#FFFFFF" width="7.333" height="7.333"/>
<rect x="54.043" y="30.502" fill="#FFFFFF" width="7.333" height="7.333"/>
<rect x="66.211" y="7.835" fill="#FFFFFF" width="7.334" height="7.333"/>
<rect x="66.211" y="19.168" fill="#FFFFFF" width="7.334" height="7.333"/>
<rect x="66.211" y="30.502" fill="#FFFFFF" width="7.334" height="7.333"/>
<rect x="78.379" y="7.835" fill="#FFFFFF" width="7.334" height="7.333"/>
<rect x="78.379" y="19.168" fill="#FFFFFF" width="7.334" height="7.333"/>
<rect x="78.379" y="30.502" fill="#FFFFFF" width="7.334" height="7.333"/>
<path fill="none" stroke="#FFFFFF" stroke-width="3" stroke-linecap="round" stroke-linejoin="round" stroke-miterlimit="10" d="
	M107.01,23.484c0.001-5.827,3.67-10.785,8.818-12.725c-1.716-1.361-3.881-2.18-6.241-2.18c-5.558,0-10.062,4.505-10.062,10.062
	c0,2.444,0.871,4.683,2.323,6.425l-1.051,3.557l3.946-1.164c0.994,0.547,2.094,0.917,3.256,1.103
	C107.366,26.992,107.01,25.28,107.01,23.484z"/>
<line fill="none" stroke="#141926" stroke-width="2.359" stroke-linecap="round" stroke-miterlimit="10" x1="159.523" y1="127.859" x2="167.726" y2="119.656"/>
<line fill="none" stroke="#141926" stroke-width="1.5301" stroke-linecap="round" stroke-miterlimit="10" x1="154.554" y1="83.735" x2="161.627" y2="90.809"/>
<line fill="none" stroke="#141926" stroke-width="2.359" stroke-linecap="round" stroke-miterlimit="10" x1="159.524" y1="119.657" x2="167.726" y2="127.859"/>
<line fill="none" stroke="#141926" stroke-width="2.359" stroke-linecap="round" stroke-miterlimit="10" x1="159.523" y1="205.11" x2="167.726" y2="196.907"/>
<line fill="none" stroke="#141926" stroke-width="2.359" stroke-linecap="round" stroke-miterlimit="10" x1="159.524" y1="196.908" x2="167.726" y2="205.11"/>
<circle fill="none" stroke="#141926" stroke-width="1.5301" stroke-miterlimit="10" cx="149.705" cy="78.393" r="6.941"/>
<path fill="#FFFFFF" stroke="#141926" stroke-width="3" stroke-linecap="round" stroke-linejoin="round" stroke-miterlimit="10" d="
	M-77.413,61.829c-5.558,0-10.062,4.504-10.062,10.061c0,2.444,0.871,4.682,2.323,6.425l-1.051,3.558l3.946-1.164
	c1.438,0.791,3.086,1.241,4.844,1.241c5.555,0,10.058-4.505,10.058-10.06C-67.355,66.333-71.858,61.829-77.413,61.829z"/>
<path fill="#FFFFFF" stroke="#141926" stroke-width="3" stroke-linecap="round" stroke-linejoin="round" stroke-miterlimit="10" d="
	M-66.381,63.124c7.517,0,13.607,6.094,13.607,13.607c0,3.306-1.179,6.334-3.14,8.693l1.42,4.811l-5.341-1.575
	c-1.942,1.068-4.171,1.679-6.547,1.679c-7.517,0-13.608-6.091-13.608-13.607C-79.989,69.218-73.897,63.124-66.381,63.124z"/>
<circle fill="#FFFFFF" stroke="#141926" stroke-width="3" stroke-miterlimit="10" cx="-23.375" cy="75.763" r="13.608"/>
<g>
	<path fill="#141926" d="M-21.396,82.302l-0.146,0.621c-0.597,0.24-1.071,0.408-1.428,0.502c-0.356,0.094-0.661,0.141-0.914,0.141
		c-0.518,0-0.906-0.135-1.166-0.404c-0.259-0.27-0.389-0.602-0.389-0.996c0-0.15,0.014-0.305,0.039-0.469
		c0.026-0.162,0.068-0.365,0.126-0.611l1.027-4.135c0.052-0.227,0.102-0.471,0.15-0.73c0.048-0.258,0.072-0.479,0.072-0.66
		c0-0.363-0.06-0.605-0.18-0.725c-0.119-0.121-0.363-0.182-0.731-0.182c-0.143,0-0.332,0.023-0.567,0.068
		c-0.236,0.047-0.416,0.084-0.539,0.117l0.146-0.621c0.505-0.227,0.958-0.396,1.359-0.506s0.719-0.166,0.952-0.166
		c0.53,0,0.916,0.127,1.153,0.381c0.24,0.252,0.359,0.592,0.359,1.021c0,0.115-0.013,0.275-0.037,0.477
		c-0.027,0.201-0.064,0.4-0.117,0.602l-1.031,4.135c-0.064,0.254-0.121,0.502-0.169,0.744c-0.049,0.244-0.072,0.443-0.072,0.598
		c0,0.371,0.082,0.623,0.247,0.76c0.164,0.137,0.432,0.205,0.799,0.205c0.122,0,0.298-0.018,0.525-0.049
		C-21.695,82.386-21.521,82.347-21.396,82.302z M-20.708,69.874c0,0.369-0.12,0.691-0.358,0.967
		c-0.24,0.275-0.539,0.412-0.895,0.412c-0.331,0-0.616-0.131-0.855-0.393c-0.24-0.264-0.357-0.562-0.357-0.9
		c0-0.355,0.119-0.666,0.357-0.932c0.239-0.266,0.524-0.398,0.855-0.398c0.369,0,0.67,0.125,0.902,0.373
		C-20.825,69.253-20.708,69.544-20.708,69.874z"/>
</g>
<circle fill="none" stroke="#FFFFFF" stroke-width="3" stroke-linecap="round" stroke-linejoin="round" stroke-miterlimit="10" cx="163.625" cy="22.512" r="13.608"/>
<g>
	<path fill="#FFFFFF" d="M165.604,29.051l-0.146,0.623c-0.597,0.24-1.071,0.406-1.428,0.5c-0.356,0.094-0.661,0.141-0.914,0.141
		c-0.518,0-0.906-0.135-1.166-0.402c-0.259-0.27-0.389-0.602-0.389-0.998c0-0.148,0.014-0.305,0.039-0.467
		c0.026-0.162,0.068-0.367,0.126-0.613l1.027-4.135c0.052-0.227,0.102-0.469,0.15-0.729c0.048-0.26,0.072-0.48,0.072-0.662
		c0-0.363-0.06-0.604-0.18-0.725c-0.119-0.119-0.363-0.18-0.731-0.18c-0.143,0-0.332,0.023-0.567,0.068
		c-0.236,0.045-0.416,0.084-0.539,0.117l0.146-0.623c0.505-0.227,0.958-0.395,1.359-0.506c0.401-0.109,0.719-0.164,0.952-0.164
		c0.53,0,0.916,0.127,1.153,0.379c0.24,0.254,0.359,0.594,0.359,1.021c0,0.117-0.013,0.275-0.037,0.477
		c-0.027,0.201-0.064,0.402-0.117,0.604l-1.031,4.135c-0.064,0.252-0.121,0.5-0.169,0.744c-0.049,0.242-0.072,0.441-0.072,0.598
		c0,0.369,0.082,0.623,0.247,0.758c0.164,0.137,0.432,0.205,0.799,0.205c0.122,0,0.298-0.016,0.525-0.049
		C165.305,29.137,165.479,29.098,165.604,29.051z M166.292,16.624c0,0.369-0.12,0.691-0.358,0.967
		c-0.24,0.275-0.539,0.414-0.895,0.414c-0.331,0-0.616-0.131-0.855-0.395c-0.24-0.262-0.357-0.562-0.357-0.898
		c0-0.355,0.119-0.668,0.357-0.934c0.239-0.266,0.524-0.398,0.855-0.398c0.369,0,0.67,0.125,0.902,0.375
		C166.174,16.005,166.292,16.293,166.292,16.624z"/>
</g>
<path fill="none" stroke="#141926" stroke-width="1.5" stroke-linecap="round" stroke-linejoin="round" stroke-miterlimit="10" d="
	M303.545,81.258l2.83,2.829l-2.68,2.679 M306.375,84.012h-8.934"/>
<rect x="344.453" y="67.739" transform="matrix(-0.7071 0.7071 -0.7071 -0.7071 674.9369 -111.762)" fill="none" stroke="#141926" stroke-width="3" stroke-miterlimit="10" width="32.324" height="32.323"/>
<path fill="none" stroke="#141926" stroke-width="1.5" stroke-linecap="round" stroke-linejoin="round" stroke-miterlimit="10" d="
	M358.188,86.766l-2.68-2.679l2.83-2.829 M364.441,84.012h-8.935"/>
<path fill="none" stroke="#FFFFFF" stroke-width="3" stroke-linecap="round" stroke-linejoin="round" stroke-miterlimit="10" d="
	M120.619,9.875c7.517,0,13.607,6.094,13.607,13.608c0,3.305-1.179,6.334-3.14,8.691l1.42,4.812l-5.341-1.575
	c-1.942,1.068-4.171,1.68-6.547,1.68c-7.517,0-13.608-6.092-13.608-13.607C107.011,15.968,113.103,9.875,120.619,9.875z"/>
<line fill="none" stroke="#141926" stroke-width="1.0065" stroke-linecap="round" stroke-miterlimit="10" x1="147.23" y1="78.29" x2="152.179" y2="78.291"/>
<line fill="none" stroke="#141926" stroke-width="1.5301" stroke-linecap="round" stroke-miterlimit="10" x1="107.473" y1="83.735" x2="114.546" y2="90.809"/>
<circle fill="none" stroke="#141926" stroke-width="1.5301" stroke-miterlimit="10" cx="102.624" cy="78.393" r="6.941"/>
<line fill="none" stroke="#141926" stroke-width="1.0065" stroke-linecap="round" stroke-miterlimit="10" x1="100.148" y1="78.29" x2="105.098" y2="78.291"/>
<line fill="none" stroke="#141926" stroke-width="1.0065" stroke-linecap="round" stroke-miterlimit="10" x1="102.624" y1="75.816" x2="102.624" y2="80.765"/>
<line fill="none" stroke="#141926" stroke-width="2.5502" stroke-linecap="round" stroke-miterlimit="10" x1="109.564" y1="85.827" x2="114.546" y2="90.809"/>
<line fill="none" stroke="#141926" stroke-width="2.5502" stroke-linecap="round" stroke-miterlimit="10" x1="156.645" y1="85.827" x2="161.627" y2="90.809"/>
<path fill="#141926" d="M12.566,175.52c-6.522-0.03-11.715-5.365-11.602-11.829c0.112-6.406,5.415-11.526,11.833-11.412
	c6.359,0.113,11.565,5.394,11.402,11.915C24.044,170.458,18.912,175.513,12.566,175.52z M14.356,165.524
	c-0.058,0.018-0.087,0.026-0.115,0.036c-1.367,0.479-2.654,1.117-3.842,1.947c-1.416,0.989-2.628,2.18-3.564,3.639
	c-0.124,0.192-0.232,0.394-0.347,0.589c0.036,0.03,0.05,0.043,0.066,0.056c1.471,1.116,3.119,1.786,4.958,1.985
	c1.661,0.18,3.265-0.048,4.814-0.668c0.102-0.041,0.133-0.08,0.112-0.197c-0.349-1.915-0.85-3.792-1.468-5.636
	C14.776,166.693,14.564,166.117,14.356,165.524z M13.675,163.867c-0.26-0.536-0.513-1.057-0.763-1.58
	c-0.036-0.075-0.078-0.085-0.155-0.062c-0.231,0.071-0.463,0.135-0.697,0.197c-1.58,0.42-3.183,0.718-4.805,0.913
	c-1.222,0.146-2.447,0.243-3.678,0.267c-0.3,0.006-0.601,0.001-0.897,0.001c-0.326,1.871,1.126,5.82,2.527,6.918
	C7.287,167.373,9.986,165.012,13.675,163.867z M2.854,161.884c3.129-0.029,6.175-0.428,9.176-1.209
	c-0.307-0.736-3.231-5.292-3.69-5.746C5.453,156.395,3.616,158.69,2.854,161.884z M19.15,156.483
	c-2.729-2.455-6.356-2.89-8.876-2.206c1.347,1.855,2.583,3.777,3.681,5.782C15.491,159.704,18.474,157.651,19.15,156.483z
	 M14.741,161.547c0.27,0.612,0.538,1.213,0.798,1.818c0.043,0.1,0.087,0.133,0.198,0.12c0.978-0.111,1.96-0.168,2.942-0.1
	c0.964,0.067,1.925,0.171,2.887,0.271c0.312,0.032,0.621,0.101,0.946,0.156c-0.048-2.319-0.792-4.366-2.237-6.17
	C18.769,159.451,16.859,160.653,14.741,161.547z M16.202,165.062c0.832,2.312,1.49,4.653,1.932,7.083
	c2.335-1.648,3.753-3.85,4.258-6.66C20.354,164.916,18.308,164.748,16.202,165.062z"/>
<path fill="#141926" d="M24.338,200.327c0,5.228-3.386,9.661-8.086,11.228c-0.6,0.115-0.812-0.253-0.812-0.568
	c0-0.389,0.014-1.663,0.014-3.246c0-1.104-0.378-1.824-0.803-2.192c2.635-0.293,5.403-1.293,5.403-5.838
	c0-1.292-0.459-2.348-1.218-3.177c0.123-0.298,0.528-1.501-0.116-3.131c0,0-0.992-0.318-3.251,1.213
	c-0.946-0.262-1.959-0.394-2.965-0.398c-1.005,0.005-2.018,0.136-2.962,0.398c-2.261-1.531-3.255-1.213-3.255-1.213
	c-0.643,1.63-0.237,2.833-0.115,3.131c-0.757,0.829-1.219,1.884-1.219,3.177c0,4.533,2.763,5.549,5.392,5.849
	c-0.339,0.295-0.645,0.817-0.751,1.584c-0.675,0.301-2.388,0.823-3.444-0.984c0,0-0.625-1.137-1.814-1.221
	c0,0-1.155-0.016-0.081,0.721c0,0,0.775,0.363,1.313,1.73c0,0,0.694,2.111,3.987,1.396c0.005,0.987,0.016,1.922,0.016,2.202
	c0,0.312-0.217,0.681-0.808,0.57c-4.703-1.564-8.093-6-8.093-11.229c0-6.536,5.299-11.834,11.834-11.834
	C19.04,188.493,24.338,193.791,24.338,200.327z M5.153,205.482c0.03-0.059-0.02-0.14-0.105-0.178
	c-0.086-0.041-0.179-0.022-0.204,0.036c-0.028,0.06,0.02,0.142,0.106,0.179C5.034,205.561,5.126,205.543,5.153,205.482
	L5.153,205.482z M5.632,206.02c0.059-0.055,0.043-0.162-0.034-0.246c-0.077-0.082-0.185-0.106-0.243-0.055
	c-0.057,0.053-0.043,0.162,0.035,0.245C5.465,206.047,5.576,206.07,5.632,206.02L5.632,206.02z M6.099,206.7
	c0.074-0.052,0.074-0.179,0.002-0.284c-0.075-0.105-0.191-0.15-0.265-0.1c-0.074,0.05-0.074,0.176-0.001,0.281
	C5.908,206.703,6.026,206.75,6.099,206.7L6.099,206.7z M6.738,207.357c0.069-0.07,0.038-0.207-0.064-0.301
	c-0.102-0.099-0.241-0.117-0.307-0.047c-0.065,0.071-0.037,0.208,0.067,0.303C6.535,207.411,6.673,207.43,6.738,207.357
	L6.738,207.357z M7.619,207.74c0.029-0.094-0.06-0.201-0.193-0.242c-0.135-0.042-0.269,0.002-0.296,0.096
	c-0.027,0.094,0.061,0.201,0.194,0.242C7.458,207.875,7.591,207.834,7.619,207.74L7.619,207.74z M8.588,207.812
	c0-0.099-0.115-0.177-0.256-0.174c-0.142,0.002-0.253,0.082-0.253,0.182c0.001,0.096,0.116,0.175,0.257,0.172
	C8.478,207.99,8.592,207.91,8.588,207.812L8.588,207.812z M9.489,207.658c-0.018-0.096-0.143-0.154-0.283-0.129
	c-0.138,0.023-0.237,0.123-0.22,0.22c0.018,0.095,0.145,0.153,0.283,0.128C9.408,207.852,9.506,207.754,9.489,207.658L9.489,207.658
	z"/>
<path fill="#141926" d="M12.725,223.725c-6.606-0.117-12.063,5.152-12.179,11.746c-0.117,6.652,5.228,12.146,11.94,12.176
	c6.531-0.008,11.813-5.211,11.974-11.656C24.628,229.277,19.271,223.842,12.725,223.725z M19.926,231.211
	c-0.065,0.107-0.4,0.486-0.756,0.832c-0.604,0.594-0.637,0.659-0.637,1.156c0,0.766-0.368,2.365-0.735,3.24
	c-0.68,1.643-2.139,3.338-3.598,4.19c-2.052,1.199-4.786,1.502-7.087,0.8c-0.767-0.236-2.084-0.843-2.084-0.949
	c0-0.033,0.399-0.076,0.886-0.088c1.015-0.021,2.031-0.303,2.896-0.8l0.583-0.346l-0.669-0.228c-0.95-0.324-1.804-1.068-2.02-1.771
	c-0.064-0.228-0.043-0.238,0.562-0.238l0.627-0.01l-0.53-0.249c-0.627-0.312-1.199-0.843-1.48-1.383
	c-0.206-0.389-0.465-1.372-0.389-1.447c0.021-0.031,0.249,0.032,0.507,0.118c0.746,0.271,0.843,0.205,0.411-0.248
	c-0.81-0.819-1.059-2.042-0.669-3.197l0.184-0.52l0.713,0.702c1.458,1.414,3.175,2.259,5.142,2.507l0.54,0.063l-0.033-0.529
	c-0.097-1.371,0.757-2.625,2.107-3.11c0.497-0.172,1.339-0.194,1.891-0.043c0.216,0.063,0.626,0.28,0.918,0.476l0.53,0.356
	l0.583-0.185c0.324-0.098,0.756-0.26,0.951-0.367c0.184-0.098,0.346-0.15,0.346-0.118c0,0.184-0.4,0.812-0.735,1.155
	c-0.454,0.485-0.324,0.529,0.594,0.205C20.024,231.006,20.035,231.006,19.926,231.211z"/>
<g>
	<path fill="#141926" d="M12.725,257.232c-6.606-0.116-12.063,5.152-12.179,11.746c-0.117,6.652,5.228,12.146,11.94,12.176
		c6.531-0.008,11.813-5.211,11.974-11.656C24.628,262.786,19.27,257.352,12.725,257.232z M19.312,273.062
		c-0.673,0.684-1.586,0.888-2.281,0.92c-1.362-0.053-2.431-0.887-3.2-2.478c-0.348-0.743-0.59-1.39-0.87-2.139l-0.28-0.743
		c-0.918-2.402-1.968-2.622-3.246-2.66c-2.01,0.043-3.119,1.928-3.133,3.271c0.047,1.32,0.961,3.438,3.213,3.363
		c0.958-0.006,1.638-0.267,2.099-0.796c0.271-0.31,0.522-0.631,0.711-0.989l0.714,1.283c-0.093,0.207-0.225,0.404-0.376,0.596
		l0.008,0.008c-0.012,0.015-0.028,0.023-0.041,0.037c-0.008,0.011-0.015,0.021-0.023,0.031l-0.006-0.004
		c-0.725,0.795-1.749,1.211-3.059,1.219c-0.056,0.002-0.112,0.002-0.167,0.002c-2.783,0-4.376-2.412-4.457-4.733
		c0.022-2.228,1.846-4.615,4.522-4.671c1.942,0.056,3.438,0.681,4.533,3.549l0.284,0.753c0.269,0.722,0.501,1.345,0.822,2.027
		c0.533,1.103,1.183,1.657,1.982,1.688c0.002,0,0.004,0,0.006,0c0.338,0,0.887-0.132,1.256-0.508
		c0.266-0.271,0.39-0.617,0.379-1.062c-0.023-0.612-0.555-1.043-1.726-1.385c-0.743-0.188-2.17-0.55-2.494-2.5
		c-0.07-0.634,0.149-1.279,0.581-1.768c0.45-0.507,1.088-0.79,1.797-0.798l0.127,0.004c0.497,0.017,1.057,0.047,1.601,0.519
		l0.005-0.007c0.015,0.013,0.026,0.025,0.04,0.038c0.009,0.008,0.018,0.012,0.027,0.02l-0.003,0.004
		c0.181,0.168,0.292,0.365,0.577,0.746l-1.096,0.834c-0.122-0.213-0.208-0.404-0.456-0.594l0.002-0.003
		c-0.166-0.144-0.321-0.159-0.741-0.173c-0.391,0-0.651,0.111-0.844,0.328c-0.196,0.221-0.265,0.49-0.246,0.66
		c0.159,0.947,0.668,1.146,1.487,1.354c1.782,0.521,2.698,1.42,2.745,2.678C20.108,271.812,19.839,272.525,19.312,273.062z"/>
</g>
</svg>
