<?xml version="1.0" encoding="utf-8"?>
<!-- Generator: Adobe Illustrator 16.0.0, SVG Export Plug-In . SVG Version: 6.00 Build 0)  -->
<!DOCTYPE svg PUBLIC "-//W3C//DTD SVG 1.1//EN" "http://www.w3.org/Graphics/SVG/1.1/DTD/svg11.dtd">
<svg version="1.1" id="Layer_1" xmlns="http://www.w3.org/2000/svg" xmlns:xlink="http://www.w3.org/1999/xlink" x="0px" y="0px"
	 width="51.428px" height="202.374px" viewBox="0 0 51.428 202.374" enable-background="new 0 0 51.428 202.374"
	 xml:space="preserve">
<polygon fill="#68C290" points="12.574,11.73 2.483,15.306 10.713,19.811 10.713,58.527 10.713,59.266 20.823,55.071 20.823,15.616 
	"/>
<polygon fill="#68C290" points="43.177,0 33.083,3.576 41.316,8.076 41.316,46.801 41.316,47.535 51.428,43.335 51.428,3.877 "/>
<polygon fill="#68C290" points="27.874,5.877 17.785,9.457 26.016,13.961 26.016,37.996 26.016,38.728 36.128,34.531 36.128,9.762 
	"/>
<path fill="#68C290" d="M23.794,121.547c0,5.228-3.386,9.661-8.086,11.228c-0.6,0.115-0.812-0.253-0.812-0.567
	c0-0.39,0.014-1.661,0.014-3.244c0-1.104-0.378-1.824-0.803-2.192c2.635-0.293,5.403-1.293,5.403-5.838
	c0-1.292-0.459-2.348-1.218-3.177c0.123-0.298,0.528-1.501-0.116-3.132c0,0-0.992-0.317-3.251,1.214
	c-0.946-0.264-1.959-0.395-2.965-0.398c-1.005,0.005-2.018,0.136-2.962,0.398c-2.261-1.531-3.255-1.214-3.255-1.214
	c-0.643,1.631-0.237,2.834-0.115,3.132c-0.757,0.829-1.219,1.884-1.219,3.177c0,4.533,2.763,5.549,5.392,5.851
	c-0.339,0.296-0.645,0.815-0.751,1.585c-0.675,0.301-2.388,0.82-3.444-0.984c0,0-0.625-1.137-1.814-1.221
	c0,0-1.155-0.019-0.081,0.721c0,0,0.775,0.363,1.313,1.729c0,0,0.694,2.109,3.987,1.396c0.005,0.987,0.016,1.922,0.016,2.202
	c0,0.312-0.217,0.681-0.808,0.569c-4.703-1.563-8.093-6-8.093-11.229c0-6.536,5.299-11.834,11.834-11.834
	C18.496,109.713,23.794,115.011,23.794,121.547z M4.608,126.701c0.03-0.061-0.02-0.142-0.105-0.178
	c-0.086-0.041-0.179-0.021-0.204,0.034c-0.028,0.062,0.02,0.144,0.106,0.181C4.49,126.78,4.582,126.763,4.608,126.701L4.608,126.701
	z M5.087,127.239c0.059-0.055,0.043-0.161-0.034-0.245c-0.077-0.082-0.185-0.104-0.243-0.056c-0.057,0.053-0.043,0.162,0.035,0.245
	C4.92,127.267,5.032,127.29,5.087,127.239L5.087,127.239z M5.555,127.92c0.074-0.053,0.074-0.18,0.002-0.284
	c-0.075-0.105-0.191-0.15-0.265-0.101c-0.074,0.051-0.074,0.177-0.001,0.281C5.364,127.923,5.481,127.97,5.555,127.92L5.555,127.92z
	 M6.193,128.576c0.069-0.069,0.038-0.206-0.064-0.301c-0.102-0.101-0.241-0.117-0.307-0.049c-0.065,0.071-0.037,0.208,0.067,0.305
	C5.991,128.631,6.128,128.649,6.193,128.576L6.193,128.576z M7.075,128.96c0.029-0.095-0.06-0.201-0.193-0.242
	c-0.135-0.042-0.269,0.002-0.296,0.096s0.061,0.201,0.194,0.242C6.914,129.095,7.046,129.054,7.075,128.96L7.075,128.96z
	 M8.044,129.032c0-0.101-0.115-0.179-0.256-0.174c-0.142,0.002-0.253,0.082-0.253,0.183c0.001,0.096,0.116,0.175,0.257,0.172
	C7.934,129.21,8.047,129.13,8.044,129.032L8.044,129.032z M8.944,128.878c-0.018-0.097-0.143-0.154-0.283-0.129
	c-0.138,0.021-0.237,0.123-0.22,0.22c0.018,0.095,0.145,0.153,0.283,0.128C8.864,129.071,8.961,128.974,8.944,128.878L8.944,128.878
	z"/>
<path fill="#68C290" d="M12.181,144.944c-6.606-0.116-12.063,5.152-12.179,11.746c-0.117,6.652,5.228,12.146,11.94,12.176
	c6.531-0.008,11.813-5.211,11.974-11.653C24.084,150.497,18.727,145.062,12.181,144.944z M19.381,152.431
	c-0.065,0.107-0.4,0.486-0.756,0.832c-0.604,0.594-0.637,0.659-0.637,1.156c0,0.766-0.368,2.364-0.735,3.239
	c-0.68,1.644-2.139,3.339-3.598,4.188c-2.052,1.199-4.786,1.502-7.087,0.802c-0.767-0.235-2.084-0.845-2.084-0.949
	c0-0.032,0.399-0.075,0.886-0.088c1.015-0.021,2.031-0.305,2.896-0.802l0.583-0.346l-0.669-0.229
	c-0.95-0.324-1.804-1.065-2.02-1.771c-0.064-0.229-0.043-0.238,0.562-0.238l0.627-0.01l-0.53-0.249
	c-0.627-0.312-1.199-0.843-1.48-1.383c-0.206-0.39-0.465-1.372-0.389-1.447c0.021-0.031,0.249,0.032,0.507,0.118
	c0.746,0.271,0.843,0.205,0.411-0.248c-0.81-0.819-1.059-2.042-0.669-3.197l0.184-0.521l0.713,0.702
	c1.458,1.414,3.175,2.26,5.142,2.507l0.54,0.062l-0.033-0.528c-0.097-1.37,0.757-2.625,2.107-3.109
	c0.497-0.172,1.339-0.194,1.891-0.043c0.216,0.062,0.626,0.28,0.918,0.476l0.53,0.356l0.583-0.186
	c0.324-0.1,0.756-0.262,0.951-0.366c0.184-0.1,0.346-0.15,0.346-0.118c0,0.184-0.4,0.812-0.735,1.154
	c-0.454,0.483-0.324,0.527,0.594,0.205C19.48,152.226,19.491,152.226,19.381,152.431z"/>
<g>
	<path fill="#68C290" d="M12.181,178.451c-6.606-0.115-12.063,5.15-12.179,11.746c-0.117,6.65,5.228,12.146,11.94,12.177
		c6.531-0.009,11.813-5.211,11.974-11.656C24.084,184.006,18.726,178.571,12.181,178.451z M18.768,194.282
		c-0.673,0.685-1.586,0.889-2.281,0.921c-1.362-0.054-2.431-0.888-3.2-2.479c-0.348-0.741-0.59-1.39-0.87-2.139l-0.28-0.743
		c-0.918-2.4-1.968-2.622-3.246-2.66c-2.01,0.043-3.119,1.93-3.133,3.271c0.047,1.318,0.961,3.438,3.213,3.362
		c0.958-0.007,1.638-0.268,2.099-0.797c0.271-0.31,0.522-0.631,0.711-0.988l0.714,1.282c-0.093,0.207-0.225,0.404-0.376,0.597
		l0.008,0.01c-0.012,0.015-0.028,0.021-0.041,0.036c-0.008,0.012-0.015,0.021-0.023,0.03l-0.006-0.004
		c-0.725,0.795-1.749,1.211-3.059,1.219c-0.056,0.003-0.112,0.003-0.167,0.003c-2.783,0-4.376-2.412-4.457-4.732
		c0.022-2.229,1.846-4.615,4.522-4.671c1.942,0.056,3.438,0.681,4.533,3.549l0.284,0.753c0.269,0.723,0.501,1.346,0.822,2.027
		c0.533,1.104,1.183,1.656,1.982,1.688c0.002,0,0.004,0,0.006,0c0.338,0,0.887-0.132,1.256-0.508
		c0.266-0.271,0.39-0.617,0.379-1.062c-0.023-0.61-0.555-1.043-1.726-1.386c-0.743-0.188-2.17-0.55-2.494-2.5
		c-0.07-0.634,0.149-1.278,0.581-1.768c0.45-0.507,1.088-0.79,1.797-0.798l0.127,0.004c0.497,0.017,1.057,0.047,1.601,0.519
		l0.005-0.007c0.015,0.013,0.026,0.025,0.04,0.038c0.009,0.008,0.018,0.012,0.027,0.021l-0.003,0.004
		c0.181,0.168,0.292,0.364,0.577,0.746l-1.096,0.834c-0.122-0.214-0.208-0.402-0.456-0.595l0.002-0.002
		c-0.166-0.145-0.321-0.16-0.741-0.174c-0.391,0-0.651,0.111-0.844,0.328c-0.196,0.221-0.265,0.49-0.246,0.66
		c0.159,0.947,0.668,1.146,1.487,1.354c1.782,0.521,2.698,1.42,2.745,2.679C19.564,193.032,19.294,193.745,18.768,194.282z"/>
</g>
<path fill="#68C290" d="M12.022,96.74C5.5,96.711,0.307,91.376,0.42,84.911c0.112-6.405,5.415-11.525,11.833-11.412
	c6.359,0.112,11.565,5.395,11.402,11.916C23.5,91.678,18.368,96.732,12.022,96.74z M13.812,86.744
	c-0.058,0.018-0.087,0.024-0.115,0.034c-1.367,0.479-2.654,1.117-3.842,1.947c-1.416,0.989-2.628,2.18-3.564,3.639
	c-0.124,0.192-0.232,0.396-0.347,0.591c0.036,0.028,0.05,0.043,0.066,0.056c1.471,1.116,3.119,1.786,4.958,1.985
	c1.661,0.18,3.265-0.05,4.814-0.668c0.102-0.041,0.133-0.08,0.112-0.197c-0.349-1.915-0.85-3.792-1.468-5.637
	C14.231,87.912,14.02,87.337,13.812,86.744z M13.13,85.087c-0.26-0.536-0.513-1.059-0.763-1.58
	c-0.036-0.075-0.078-0.085-0.155-0.062c-0.231,0.07-0.463,0.136-0.697,0.196c-1.58,0.42-3.183,0.718-4.805,0.913
	c-1.222,0.146-2.447,0.243-3.678,0.268c-0.3,0.007-0.601,0-0.897,0c-0.326,1.871,1.126,5.82,2.527,6.918
	C6.743,88.593,9.441,86.231,13.13,85.087z M2.31,83.104c3.129-0.029,6.175-0.428,9.176-1.209c-0.307-0.736-3.231-5.292-3.69-5.746
	C4.909,77.615,3.072,79.91,2.31,83.104z M18.606,77.703c-2.729-2.455-6.356-2.892-8.876-2.207c1.347,1.854,2.583,3.776,3.681,5.782
	C14.947,80.924,17.93,78.871,18.606,77.703z M14.197,82.767c0.27,0.612,0.538,1.213,0.798,1.818c0.043,0.1,0.087,0.133,0.198,0.12
	c0.978-0.111,1.96-0.168,2.942-0.102c0.964,0.067,1.925,0.171,2.887,0.271c0.312,0.031,0.621,0.101,0.946,0.154
	c-0.048-2.317-0.792-4.364-2.237-6.17C18.225,80.671,16.315,81.873,14.197,82.767z M15.658,86.281
	c0.832,2.312,1.49,4.653,1.932,7.084c2.335-1.647,3.753-3.851,4.258-6.659C19.81,86.136,17.764,85.968,15.658,86.281z"/>
</svg>
