<?xml version="1.0" encoding="utf-8"?>
<!-- Generator: Adobe Illustrator 16.0.0, SVG Export Plug-In . SVG Version: 6.00 Build 0)  -->
<!DOCTYPE svg PUBLIC "-//W3C//DTD SVG 1.1//EN" "http://www.w3.org/Graphics/SVG/1.1/DTD/svg11.dtd">
<svg version="1.1" id="Layer_1" xmlns="http://www.w3.org/2000/svg" xmlns:xlink="http://www.w3.org/1999/xlink" x="0px" y="0px"
	 width="120px" height="144px" viewBox="0 0 120 144" enable-background="new 0 0 120 144" xml:space="preserve">
<rect x="175.085" fill="#EFEFF4" width="271.081" height="271.081"/>
<g>
	<g>
		<path fill="#2AF2C6" d="M237.527,71.697l20,10.938v95.863l24.563-10.197v-95.86l-20.051-9.435L237.527,71.697z M336.396,34.498
			l-24.515,8.688l20.002,10.942v95.86l24.562-10.195V43.931L336.396,34.498z M274.704,57.476l20,10.939v60.183l24.565-10.193V58.219
			l-20.051-9.435L274.704,57.476z"/>
	</g>
</g>
<rect x="503.651" fill="#EFEFF4" width="271.081" height="271.081"/>
<g>
	<g>
		<path fill="#F26E2B" d="M566.094,71.697l20,10.938v95.863l24.564-10.197v-95.86l-20.051-9.435L566.094,71.697z M664.962,34.498
			l-24.514,8.688l20.002,10.942v95.86l24.562-10.195V43.931L664.962,34.498z M603.271,57.476l20,10.939v60.183l24.564-10.193V58.219
			l-20.05-9.435L603.271,57.476z"/>
	</g>
</g>
<rect x="503.651" y="304.484" fill="#EFEFF4" width="271.081" height="271.081"/>
<g>
	<g>
		<path fill="#FF7733" d="M566.094,376.182l20,10.938v95.863l24.564-10.197v-95.859l-20.051-9.436L566.094,376.182z
			 M664.962,338.982l-24.514,8.688l20.002,10.942v95.859l24.562-10.194v-95.861L664.962,338.982z M603.271,361.961l20,10.938v60.183
			l24.564-10.194v-60.185l-20.05-9.436L603.271,361.961z"/>
	</g>
</g>
<g>
	<g>
		<path fill="#2AF2C6" d="M0,37.199l20,10.938V144l24.565-10.197v-95.86l-20.051-9.435L0,37.199z M98.868,0L74.354,8.688
			L94.356,19.63v95.86l24.562-10.195V9.433L98.868,0z M37.177,22.978l20,10.939V94.1l24.565-10.193V23.721l-20.05-9.435
			L37.177,22.978z"/>
	</g>
</g>
</svg>
