<?xml version="1.0" encoding="utf-8"?>
<!-- Generator: Adobe Illustrator 16.0.0, SVG Export Plug-In . SVG Version: 6.00 Build 0)  -->
<!DOCTYPE svg PUBLIC "-//W3C//DTD SVG 1.1//EN" "http://www.w3.org/Graphics/SVG/1.1/DTD/svg11.dtd">
<svg version="1.1" id="Layer_1" xmlns="http://www.w3.org/2000/svg" xmlns:xlink="http://www.w3.org/1999/xlink" x="0px" y="0px"
	 width="137px" height="76px" viewBox="0 0 137 76" enable-background="new 0 0 137 76" xml:space="preserve">
<g>
	<path fill="#FFFFFF" d="M3.443,5.404c0-1.223,1-2.224,2.223-2.224h125.503c1.223,0,2.224,1,2.224,2.224v41.591
		c0,1.223-0.947,2.548-2.104,2.944L70.52,70.75c-1.157,0.396-3.05,0.396-4.207,0L5.546,49.939c-1.157-0.396-2.104-1.721-2.104-2.944
		V5.404z"/>
	<path fill="none" stroke="#3A3831" stroke-width="7" stroke-miterlimit="10" d="M3.443,5.404c0-1.223,1-2.224,2.223-2.224h125.503
		c1.223,0,2.224,1,2.224,2.224v41.591c0,1.223-0.947,2.548-2.104,2.944L70.52,70.75c-1.157,0.396-3.05,0.396-4.207,0L5.546,49.939
		c-1.157-0.396-2.104-1.721-2.104-2.944V5.404z"/>
</g>
</svg>
