<?xml version="1.0" encoding="utf-8"?>
<!-- Generator: Adobe Illustrator 16.0.0, SVG Export Plug-In . SVG Version: 6.00 Build 0)  -->
<!DOCTYPE svg PUBLIC "-//W3C//DTD SVG 1.1//EN" "http://www.w3.org/Graphics/SVG/1.1/DTD/svg11.dtd">
<svg version="1.1" id="Layer_1" xmlns="http://www.w3.org/2000/svg" xmlns:xlink="http://www.w3.org/1999/xlink" x="0px" y="0px"
	 width="140.25px" height="100px" viewBox="0 0 140.25 100" enable-background="new 0 0 140.25 100" xml:space="preserve">
<rect x="17.755" y="61.751" fill="#ADADAD" width="21.662" height="6"/>
<rect x="7.088" y="61.085" fill="#ADADAD" width="7.333" height="7.333"/>
<rect x="17.755" y="61.085" fill="#ADADAD" width="21.662" height="7.333"/>
<rect x="17.755" y="72.418" fill="#ADADAD" width="21.662" height="7.333"/>
<rect x="17.755" y="83.751" fill="#ADADAD" width="21.662" height="7.333"/>
<rect x="7.088" y="72.418" fill="#ADADAD" width="7.333" height="7.333"/>
<rect x="7.088" y="83.751" fill="#ADADAD" width="7.333" height="7.333"/>
<rect x="54.043" y="61.085" fill="#393730" width="7.333" height="7.333"/>
<rect x="54.043" y="72.418" fill="#393730" width="7.333" height="7.333"/>
<rect x="54.043" y="83.752" fill="#393730" width="7.333" height="7.333"/>
<rect x="66.211" y="61.085" fill="#393730" width="7.334" height="7.333"/>
<rect x="66.211" y="72.418" fill="#393730" width="7.334" height="7.333"/>
<rect x="66.211" y="83.752" fill="#393730" width="7.334" height="7.333"/>
<rect x="78.379" y="61.085" fill="#393730" width="7.334" height="7.333"/>
<rect x="78.379" y="72.418" fill="#393730" width="7.334" height="7.333"/>
<rect x="78.379" y="83.752" fill="#393730" width="7.334" height="7.333"/>
<rect x="17.755" y="8.501" fill="#393730" width="21.662" height="6"/>
<rect x="7.088" y="7.835" fill="#393730" width="7.333" height="7.333"/>
<rect x="17.755" y="7.835" fill="#393730" width="21.662" height="7.333"/>
<rect x="17.755" y="19.168" fill="#393730" width="21.662" height="7.333"/>
<rect x="17.755" y="30.501" fill="#393730" width="21.662" height="7.333"/>
<rect x="7.088" y="19.168" fill="#393730" width="7.333" height="7.333"/>
<rect x="7.088" y="30.501" fill="#393730" width="7.333" height="7.333"/>
<rect x="100.71" y="7.835" fill="#FFFFFF" stroke="#393730" stroke-miterlimit="10" width="17.341" height="13.339"/>
<rect x="100.71" y="23.848" fill="#FFFFFF" stroke="#393730" stroke-miterlimit="10" width="17.341" height="13.339"/>
<rect x="121.385" y="7.835" fill="#393730" width="11.654" height="1.648"/>
<rect x="121.385" y="13.52" fill="#393730" width="11.654" height="1.648"/>
<rect x="121.385" y="10.677" fill="#393730" width="11.654" height="1.648"/>
<rect x="150.055" y="7.835" fill="#393730" width="17.341" height="12.338"/>
<rect x="170.729" y="25.174" fill="#393730" width="11.654" height="1.648"/>
<rect x="170.729" y="30.858" fill="#393730" width="11.654" height="1.648"/>
<rect x="170.729" y="28.016" fill="#393730" width="11.654" height="1.648"/>
<rect x="170.729" y="7.835" fill="#393730" width="11.654" height="1.648"/>
<rect x="170.729" y="13.52" fill="#393730" width="11.654" height="1.648"/>
<rect x="170.729" y="10.677" fill="#393730" width="11.654" height="1.648"/>
<rect x="150.055" y="25.174" fill="#393730" width="17.341" height="12.338"/>
<rect x="100.71" y="61.787" fill="#FFFFFF" stroke="#393730" stroke-miterlimit="10" width="32.354" height="20.344"/>
<rect x="100.71" y="85.415" fill="#FFFFFF" stroke="#393730" stroke-miterlimit="10" width="32.354" height="5.67"/>
<rect x="150.043" y="61.787" fill="#393730" width="32.354" height="12.338"/>
<rect x="150.043" y="79.126" fill="#393730" width="32.354" height="12.338"/>
<rect x="54.043" y="7.835" fill="#ADADAD" width="7.333" height="7.333"/>
<rect x="54.043" y="19.168" fill="#ADADAD" width="7.333" height="7.333"/>
<rect x="54.043" y="30.502" fill="#ADADAD" width="7.333" height="7.333"/>
<rect x="66.211" y="7.835" fill="#ADADAD" width="7.334" height="7.333"/>
<rect x="66.211" y="19.168" fill="#ADADAD" width="7.334" height="7.333"/>
<rect x="66.211" y="30.502" fill="#ADADAD" width="7.334" height="7.333"/>
<rect x="78.379" y="7.835" fill="#ADADAD" width="7.334" height="7.333"/>
<rect x="78.379" y="19.168" fill="#ADADAD" width="7.334" height="7.333"/>
<rect x="78.379" y="30.502" fill="#ADADAD" width="7.334" height="7.333"/>
<rect x="101.21" y="88.918" fill="#FFFFFF" width="31.374" height="2.667"/>
</svg>
